<?xml version="1.0" standalone="no"?>
<!DOCTYPE svg PUBLIC "-//W3C//DTD SVG 20010904//EN"
 "http://www.w3.org/TR/2001/REC-SVG-20010904/DTD/svg10.dtd">
<svg version="1.0" xmlns="http://www.w3.org/2000/svg"
 width="627.000000pt" height="626.000000pt" viewBox="0 0 627.000000 626.000000"
 preserveAspectRatio="xMidYMid meet">

<g transform="translate(0.000000,626.000000) scale(0.100000,-0.100000)"
fill="#000000" stroke="none">
<path d="M0 3135 l0 -3125 3130 0 3130 0 0 3125 0 3125 -3130 0 -3130 0 0
-3125z m1237 560 c34 -23 63 -74 63 -114 0 -18 -11 -54 -24 -80 -14 -25 -27
-54 -30 -63 -7 -24 -36 -23 -36 1 0 10 11 39 25 65 32 61 33 109 1 141 -32 32
-69 40 -107 25 -59 -25 -77 -93 -40 -154 10 -17 22 -46 26 -63 5 -27 3 -33
-10 -33 -8 0 -18 8 -21 18 -3 9 -16 38 -30 63 -30 59 -31 106 -1 150 43 65
122 84 184 44z m380 -146 c36 -22 73 -91 73 -135 0 -16 -9 -47 -19 -70 -62
-136 -274 -107 -298 40 -23 142 122 240 244 165z m-387 -154 c0 -12 -14 -15
-64 -15 -60 0 -84 8 -69 24 3 3 35 6 70 6 49 0 63 -3 63 -15z m-26 -31 c33
-13 14 -24 -39 -24 -51 0 -72 12 -42 23 18 8 63 8 81 1z m-16 -60 c-10 -10
-23 -14 -37 -9 -34 10 -24 25 16 25 34 0 36 -1 21 -16z m1182 -84 c0 -5 -11
-10 -25 -10 -14 0 -25 -4 -25 -10 0 -5 6 -10 13 -10 6 0 22 -3 35 -6 19 -5 22
-2 22 20 0 16 5 26 15 26 11 0 15 -12 15 -45 0 -32 -4 -45 -14 -45 -8 0 -16 6
-19 13 -4 10 -7 10 -18 0 -15 -15 -89 -17 -89 -3 0 6 17 11 38 11 28 2 31 3
10 6 -37 6 -54 28 -38 48 14 17 80 21 80 5z m150 0 c0 -5 -13 -10 -30 -10 -38
0 -40 -18 -2 -22 19 -2 27 -9 27 -23 0 -16 -8 -21 -42 -23 -26 -2 -43 1 -43 7
0 6 15 12 33 12 31 2 31 2 4 6 -30 5 -43 23 -33 48 6 17 86 22 86 5z m210 0
c0 -5 -13 -10 -30 -10 -16 0 -30 -4 -30 -10 0 -5 9 -10 20 -10 27 0 25 -18 -2
-23 -17 -3 -14 -5 10 -6 52 -2 37 -21 -18 -21 l-50 0 0 35 c0 28 -4 35 -20 35
-16 0 -20 -7 -20 -35 0 -24 -5 -35 -15 -35 -10 0 -15 11 -15 35 0 24 -5 35
-15 35 -8 0 -15 5 -15 10 0 6 40 10 100 10 60 0 100 -4 100 -10z m51 -11 l11
-21 14 21 c26 36 44 26 44 -24 0 -33 -4 -45 -15 -45 -9 0 -15 9 -15 23 0 16
-3 19 -9 8 -5 -8 -16 -11 -25 -8 -10 4 -16 1 -16 -8 0 -8 -7 -15 -15 -15 -11
0 -15 12 -15 45 0 50 20 62 41 24z m169 -26 c15 -34 16 -43 5 -43 -8 0 -17 5
-20 10 -3 6 -15 10 -26 10 -10 0 -19 -4 -19 -10 0 -5 -7 -10 -15 -10 -19 0
-19 3 6 51 25 50 44 48 69 -8z m148 35 c7 -7 12 -21 12 -33 0 -31 -19 -45 -62
-45 l-38 0 0 45 0 45 38 0 c21 0 43 -5 50 -12z m122 2 c0 -5 -13 -10 -30 -10
-16 0 -30 -4 -30 -10 0 -5 9 -10 20 -10 27 0 25 -18 -2 -23 -17 -3 -14 -5 10
-6 52 -2 37 -21 -18 -21 l-50 0 0 45 0 45 50 0 c28 0 50 -4 50 -10z m130 0 c0
-5 -13 -10 -30 -10 -25 0 -30 -4 -30 -25 0 -21 5 -25 30 -25 17 0 30 -4 30
-10 0 -14 -64 -12 -78 2 -7 7 -12 21 -12 33 0 12 5 26 12 33 14 14 78 16 78 2z
m111 -11 c18 -35 -3 -69 -44 -69 -38 0 -57 15 -57 45 0 30 19 45 57 45 23 0
36 -6 44 -21z m66 -1 l23 -21 0 21 c0 13 6 22 15 22 11 0 15 -12 15 -45 0 -51
-11 -56 -47 -23 l-23 21 0 -21 c0 -13 -6 -22 -15 -22 -11 0 -15 12 -15 45 0
51 11 56 47 23z m259 -25 c1 -30 -3 -43 -13 -43 -7 0 -16 7 -19 15 -4 8 -10
15 -15 15 -5 0 -9 -7 -9 -15 0 -8 -7 -15 -15 -15 -10 0 -15 11 -15 35 0 31 -3
35 -25 35 -22 0 -25 -4 -25 -35 0 -24 -5 -35 -15 -35 -10 0 -15 11 -15 35 0
24 -5 35 -15 35 -8 0 -15 5 -15 10 0 6 37 9 98 8 l97 -3 1 -42z m112 35 c7 -7
12 -21 12 -33 0 -30 -19 -45 -55 -45 -36 0 -55 15 -55 45 0 30 19 45 55 45 17
0 36 -5 43 -12z m52 -23 c0 -32 2 -35 30 -35 17 0 30 -4 30 -10 0 -5 -20 -10
-45 -10 l-45 0 0 45 c0 33 4 45 15 45 10 0 15 -11 15 -35z m160 25 c0 -5 -13
-10 -30 -10 -16 0 -30 -4 -30 -10 0 -5 11 -10 25 -10 34 0 32 -18 -2 -23 -26
-4 -26 -4 5 -6 49 -2 38 -21 -13 -21 l-45 0 0 45 0 45 45 0 c25 0 45 -4 45
-10z m140 0 c0 -5 -13 -10 -30 -10 -16 0 -30 -4 -30 -10 0 -5 11 -10 25 -10
34 0 32 -18 -2 -23 -26 -4 -26 -4 5 -6 49 -2 38 -21 -13 -21 l-45 0 0 45 0 45
45 0 c25 0 45 -4 45 -10z m54 -11 l14 -21 11 21 c21 38 41 26 41 -24 0 -33 -4
-45 -15 -45 -8 0 -15 7 -15 15 0 9 -6 12 -16 8 -9 -3 -20 0 -25 8 -6 11 -9 8
-9 -8 0 -14 -6 -23 -15 -23 -11 0 -15 12 -15 45 0 50 18 60 44 24z m174 9 c10
-10 14 -10 21 0 5 8 23 12 47 10 39 -3 39 -3 40 -45 1 -30 -3 -43 -13 -43 -7
0 -16 7 -19 15 -4 8 -10 15 -15 15 -5 0 -9 -7 -9 -15 0 -8 -7 -15 -15 -15 -8
0 -15 9 -15 20 0 21 -15 27 -25 10 -3 -5 -17 -10 -31 -10 -13 0 -24 -4 -24
-10 0 -5 -7 -10 -15 -10 -11 0 -15 12 -15 45 l0 45 38 0 c21 0 44 -6 50 -12z
m222 2 c0 -5 -13 -10 -30 -10 -16 0 -30 -4 -30 -10 0 -5 9 -10 20 -10 28 0 25
-20 -2 -21 -14 -1 -10 -4 12 -8 19 -3 51 -4 70 -2 l35 5 -30 5 c-24 5 -30 11
-30 31 0 22 5 25 38 28 21 2 37 -1 37 -7 0 -6 -11 -11 -25 -11 -34 0 -32 -18
3 -22 19 -2 27 -9 27 -23 0 -18 -8 -20 -97 -23 l-98 -3 0 46 0 45 50 0 c28 0
50 -4 50 -10z m190 -30 c24 -47 24 -50 5 -50 -8 0 -15 5 -15 10 0 6 -9 10 -19
10 -11 0 -23 -4 -26 -10 -3 -5 -13 -10 -20 -10 -12 0 -10 10 7 45 12 25 28 45
35 45 7 0 22 -18 33 -40z m117 28 c12 -19 10 -78 -3 -78 -6 0 -17 7 -24 15 -7
8 -16 15 -21 15 -5 0 -9 -7 -9 -15 0 -8 -7 -15 -15 -15 -11 0 -15 12 -15 45
l0 45 39 0 c22 0 43 -6 48 -12z m53 -33 c0 -33 -4 -45 -15 -45 -11 0 -15 12
-15 45 0 33 4 45 15 45 11 0 15 -12 15 -45z m97 3 l22 -43 0 43 c1 35 4 42 21
42 16 0 20 -7 20 -35 0 -32 2 -35 30 -35 17 0 30 -4 30 -10 0 -6 -28 -10 -64
-10 -36 0 -68 5 -71 10 -3 6 -15 10 -26 10 -10 0 -19 -4 -19 -10 0 -5 -7 -10
-15 -10 -19 0 -19 3 5 50 11 22 26 40 33 40 7 0 23 -19 34 -42z m-3420 9 c32
-17 67 -60 225 -280 88 -122 96 -154 53 -201 -30 -32 -72 -34 -167 -7 -36 11
-69 17 -72 13 -3 -3 -6 -34 -6 -69 l0 -63 -245 0 -245 0 0 63 c0 35 -3 66 -6
69 -3 4 -36 -2 -72 -13 -93 -26 -137 -25 -167 6 -41 40 -34 81 28 166 135 189
217 295 239 308 36 23 92 29 253 27 119 -2 157 -6 182 -19z m3513 -306 c7 -15
6 -23 -6 -35 -14 -14 -162 -16 -1470 -16 -984 0 -1462 3 -1475 10 -22 12 -25
30 -7 48 9 9 351 12 1480 12 1439 0 1467 0 1478 -19z"/>
<path d="M3040 3185 c0 -18 5 -25 20 -25 15 0 20 7 20 25 0 18 -5 25 -20 25
-15 0 -20 -7 -20 -25z"/>
<path d="M3390 3185 c0 -22 4 -26 23 -23 14 2 22 10 22 23 0 13 -8 21 -22 23
-19 3 -23 -1 -23 -23z"/>
<path d="M3730 3200 c0 -5 7 -10 15 -10 8 0 15 5 15 10 0 6 -7 10 -15 10 -8 0
-15 -4 -15 -10z"/>
<path d="M3834 3195 c-4 -9 -2 -21 4 -27 15 -15 44 -1 40 19 -4 23 -36 29 -44
8z"/>
<path d="M4420 3195 c0 -10 7 -15 18 -13 21 4 19 22 -2 26 -10 2 -16 -3 -16
-13z"/>
<path d="M4530 3200 c0 -5 7 -10 15 -10 8 0 15 5 15 10 0 6 -7 10 -15 10 -8 0
-15 -4 -15 -10z"/>
<path d="M4950 3200 c0 -5 9 -10 20 -10 11 0 20 5 20 10 0 6 -9 10 -20 10 -11
0 -20 -4 -20 -10z"/>
<path d="M1280 3010 l0 -90 39 0 c54 0 69 -7 87 -42 20 -38 10 -82 -23 -108
-14 -11 -24 -22 -22 -24 2 -2 41 -16 86 -31 l83 -28 62 23 c35 13 74 27 87 32
l25 9 -31 19 c-51 31 -53 100 -4 137 9 7 35 13 59 13 l42 0 0 90 0 90 -27 -6
c-16 -4 -71 -22 -123 -39 l-95 -32 -115 39 c-63 21 -118 38 -122 38 -4 0 -8
-40 -8 -90z"/>
</g>
</svg>
